<?xml version="1.0" encoding="utf-8"?>
<!-- Generator: Adobe Illustrator 23.0.1, SVG Export Plug-In . SVG Version: 6.00 Build 0)  -->
<svg version="1.1" id="图层_1" xmlns="http://www.w3.org/2000/svg" xmlns:xlink="http://www.w3.org/1999/xlink" x="0px" y="0px"
	 viewBox="0 0 80 80" style="enable-background:new 0 0 80 80;" xml:space="preserve">
<style type="text/css">
	.st0{fill-rule:evenodd;clip-rule:evenodd;fill:#E4E4E4;}
	.st1{filter:url(#Adobe_OpacityMaskFilter);}
	.st2{fill-rule:evenodd;clip-rule:evenodd;fill:#FFFFFF;}
	.st3{mask:url(#mask-5_1_);}
	.st4{fill:#FFFFFF;}
</style>
<title>矩形</title>
<desc>Created with Sketch.</desc>
<g id="默认图" transform="translate(16.000000, 16.000000)">
	<g>
		<rect x="-16" y="-16" class="st0" width="80" height="80"/>
	</g>
	<defs>
		<filter id="Adobe_OpacityMaskFilter" filterUnits="userSpaceOnUse" x="-4" y="6" width="56" height="36">
			<feColorMatrix  type="matrix" values="1 0 0 0 0  0 1 0 0 0  0 0 1 0 0  0 0 0 1 0"/>
		</filter>
	</defs>
	<mask maskUnits="userSpaceOnUse" x="-4" y="6" width="56" height="36" id="mask-5_1_">
		<g class="st1">
			<rect id="path-4_1_" x="-16" y="-16" class="st2" width="80" height="80"/>
		</g>
	</mask>
	<g id="分组-4" class="st3">
		<g id="路径" transform="translate(12.000000, 22.000000)">
			<path class="st4" d="M20-16c3.3,0,6,2.7,6,6s-2.7,6-6,6s-6-2.7-6-6S16.7-16,20-16z"/>
			<path class="st4" d="M-16,20c0,0,4.6-24,15.3-24C9.8-4,12.4,12.8,19.8,12.8c4.7,0,4.2-7.6,11.5-7.6C36.6,5.2,40,20,40,20H-16
				L-16,20z"/>
		</g>
	</g>
</g>
</svg>
